<svg width="64" height="40" viewBox="0 0 64 40" fill="none" xmlns="http://www.w3.org/2000/svg">
<path fill-rule="evenodd" clip-rule="evenodd" d="M18.6186 33.9573L18.491 33.5042H20.0111L21.7487 37.6221L21.7446 33.9684L21.5383 33.5007H23.3253L23.1448 33.9684V39.5358L23.2724 39.9895H21.7511L20.0129 35.9668L20.017 39.5252L20.2233 39.993H18.437L18.6174 39.5252V33.9573H18.6186ZM32.2448 5.99535C31.7746 7.74122 33.6832 9.69289 35.8699 6.33388L35.3215 5.93747C35.5544 5.55938 35.8942 5.25793 36.2983 5.07076C36.7025 4.88359 37.1531 4.81899 37.594 4.88504C36.8639 5.42318 36.2823 6.13617 35.9034 6.95774H35.9075C34.6655 9.31694 37.2713 11.0996 38.9777 8.47792L38.0466 7.78741C38.9571 6.32921 40.3855 5.55625 42.5652 5.69658C39.5673 7.89031 37.7609 11.6177 37.6381 17.5125C33.8824 16.5507 29.943 16.5507 26.1873 17.5125C26.0645 11.6177 24.2581 7.8909 21.2608 5.69658C23.4399 5.55625 24.8683 6.32921 25.7788 7.78741L24.8489 8.48026C26.5536 11.1026 29.1617 9.31987 27.9191 6.96008L27.9373 6.95131C27.5584 6.13286 26.9781 5.42261 26.2502 4.88621C26.6911 4.82024 27.1417 4.88487 27.5458 5.07204C27.95 5.2592 28.2897 5.56061 28.5228 5.93864L27.9743 6.33505C30.1493 9.6812 32.0461 7.75291 31.5853 6.00997C31.251 5.9763 30.943 5.81454 30.7266 5.55896C30.5101 5.30337 30.4021 4.97402 30.4255 4.64064L31.2009 0.00116937V4.23545C31.2009 4.41456 31.2724 4.58632 31.3997 4.71297C31.527 4.83961 31.6997 4.91076 31.8798 4.91076C32.0599 4.91076 32.2325 4.83961 32.3599 4.71297C32.4872 4.58632 32.5587 4.41456 32.5587 4.23545V0L33.3346 4.63947C33.3584 4.96099 33.259 5.27954 33.0562 5.53108C32.8535 5.78263 32.5626 5.9485 32.2419 5.99535H32.2448ZM27.2437 12.3836L27.1208 12.7619H26.7205L27.045 12.9958L26.9204 13.3741L27.2431 13.1402L27.5664 13.3741L27.4423 12.9946L27.7662 12.7607H27.3665L27.2431 12.3824L27.2437 12.3836ZM36.6705 12.3836L36.5477 12.7619H36.1479L36.4712 12.9958L36.3472 13.3741L36.6705 13.1402L36.9932 13.3741L36.871 12.9946L37.1954 12.7607H36.7951L36.6723 12.3824L36.6705 12.3836ZM31.9092 10.5588V14.7604L31.7763 15.1112C32.216 15.108 32.6567 15.1193 33.0983 15.1451L32.9455 14.7832V12.1018C33.1591 12.6237 33.373 13.1484 33.5874 13.6758C33.8014 14.2049 34.0165 14.7393 34.234 15.2737C34.6086 15.338 34.9837 15.4146 35.3591 15.5035C35.3268 15.3836 35.2956 15.2644 35.2645 15.1451V11.0201L35.3985 10.7149C34.9572 10.5859 34.5164 10.4772 34.0759 10.3887L34.2281 10.767V13.5033C34.013 12.9548 33.7978 12.4064 33.5815 11.8662C33.3652 11.3259 33.153 10.7857 32.9396 10.2507C32.5642 10.23 32.1892 10.2207 31.8145 10.2226C31.8457 10.336 31.8769 10.4483 31.9092 10.5617V10.5588ZM29.5661 11.416V14.4329C29.8013 14.3955 30.0364 14.3634 30.2715 14.3341C30.3497 14.2452 30.4279 14.1587 30.5066 14.0716V13.4162L30.3068 13.1876C30.0599 13.3706 29.8136 13.5553 29.5673 13.7448V12.7309C29.8808 12.4924 30.1943 12.26 30.5078 12.034V11.5078L30.2727 11.2996C30.0376 11.3335 29.8024 11.3704 29.5673 11.4125L29.5661 11.416ZM28.4493 10.7354L28.5222 11.0482V15.1883C28.4975 15.3053 28.4746 15.4222 28.451 15.5392L28.6074 15.5076C28.9276 15.4425 29.2479 15.384 29.5685 15.3322C29.9858 15.2718 30.4034 15.2219 30.8211 15.1825C31.0563 14.9521 31.2867 14.7223 31.5195 14.4967V12.9531C31.3825 12.8443 31.2455 12.735 31.108 12.6286C31.2449 12.5005 31.3819 12.3748 31.5195 12.248V10.909C31.2843 10.7026 31.0539 10.4998 30.8211 10.2992C30.403 10.3479 29.9854 10.4085 29.5685 10.481C29.1938 10.5549 28.8212 10.6387 28.451 10.7325L28.4493 10.7354ZM0.10522 36.9988C5.72406 35.9637 11.392 35.2124 17.0873 34.7478V33.624C11.3747 34.2118 5.70352 35.1455 0.10522 36.42V36.9988ZM47.0814 34.8355C52.7205 35.3126 58.3601 36.0337 64 36.9988V36.42C58.4139 35.2102 52.7661 34.302 47.0814 33.6994V34.8372V34.8355ZM9.22582 19.7834C9.30871 20.0868 9.39159 20.3903 9.48094 20.692C9.18703 22.418 8.89312 24.1673 8.60626 25.9343C8.31705 27.7251 8.03196 29.533 7.74452 31.3718C7.60403 31.6934 7.46354 32.0202 7.32305 32.3436C8.36996 32.1991 9.41686 32.0734 10.4632 31.9454C10.3868 31.67 10.3162 31.3899 10.2457 31.1099C10.31 30.5494 10.3803 29.99 10.4567 29.4318C11.0375 29.3921 11.6182 29.3517 12.199 29.3149C12.276 29.844 12.3518 30.3673 12.4341 30.8935C12.3642 31.1759 12.2931 31.4589 12.2302 31.7396C13.2512 31.639 14.2875 31.5355 15.3197 31.4361C15.1847 31.1873 15.0529 30.9369 14.9241 30.6848C14.6177 29.1292 14.3112 27.5548 14.0048 25.9617C13.6954 24.3355 13.3932 22.7079 13.0984 21.079C13.1877 20.8235 13.2747 20.568 13.3729 20.3143C11.988 20.1552 10.6031 19.9693 9.22406 19.7881L9.22582 19.7834ZM11.3132 23.4973C11.3961 24.1054 11.4854 24.7093 11.5683 25.3127C11.6512 25.9161 11.7405 26.5137 11.8299 27.1106L10.8218 27.1305C10.9046 26.5201 10.9816 25.9097 11.0645 25.3028C11.1474 24.6959 11.2238 24.0966 11.3132 23.4973ZM0 18.3222L0.352692 18.3854C1.08041 18.5152 1.81401 18.6462 2.5482 18.7754C3.49929 18.9461 4.45038 19.1069 5.40735 19.2531C5.93639 19.9313 6.46542 20.5926 7.00328 21.241V23.0038C7.00328 23.5885 7.00916 24.1779 7.00916 24.7631C6.69565 25.0687 6.38215 25.379 6.06865 25.6939C6.37972 26.0063 6.69461 26.3148 7.01327 26.6195V27.6409C7.01327 28.656 7.01974 29.671 7.01974 30.6842C6.48992 31.3145 5.96088 31.9577 5.43263 32.6137C4.47448 32.7511 3.52398 32.9019 2.57288 33.0616C1.83929 33.1855 1.10334 33.3106 0.37738 33.4311L0.0329179 33.4895C0.0770043 33.1294 0.128145 32.7657 0.185751 32.4032L0.166353 25.8986C0.160083 23.7302 0.160083 21.561 0.166353 19.3911C0.107571 19.0361 0.0517281 18.6777 0.000587819 18.3199L0 18.3222ZM2.54643 21.5211C2.54643 23.0023 2.54859 24.4856 2.5529 25.9711C2.55721 27.4566 2.56152 28.9389 2.56583 30.4182C3.10192 30.3597 3.63801 30.3054 4.17469 30.2521L4.71078 29.5423C4.71078 28.9372 4.70432 28.3303 4.70432 27.7216C4.54991 27.4933 4.39883 27.2627 4.25111 27.0299C3.68328 27.469 3.12132 27.9233 2.55937 28.3882C2.55937 27.3942 2.5529 26.4002 2.5529 25.401C3.26769 24.8736 3.98052 24.3634 4.69139 23.8703V22.408C4.51269 22.1741 4.3338 21.937 4.15471 21.6965L2.54643 21.5211ZM16.2567 21.362C16.1866 21.1067 16.1164 20.8498 16.0463 20.5914C17.8268 20.7423 19.6138 20.8837 21.4013 21.0059C21.9245 21.4936 22.4482 21.973 22.9779 22.4489C22.9779 23.0576 22.9749 23.6663 22.9779 24.2732C22.9808 24.8801 22.9843 25.4905 22.9843 26.0974C22.5693 26.5004 22.1545 26.9062 21.7399 27.3147C21.995 27.8029 22.2631 28.2864 22.5188 28.7659C22.7745 29.2453 23.0419 29.7195 23.31 30.1925C23.5275 30.4164 23.7503 30.6404 23.9736 30.8608L20.5778 31.0362L20.7541 30.3048C20.5308 29.8452 20.3144 29.381 20.097 28.9167C19.8795 28.4525 19.6631 27.9847 19.4457 27.5135C19.1711 27.5182 18.8966 27.5252 18.6227 27.5299C18.6227 28.0128 18.6292 28.4975 18.6292 28.9793C18.6292 29.4611 18.6356 29.9434 18.6486 30.4258C18.7661 30.6661 18.8784 30.9052 19.0013 31.1426C17.9861 31.2192 16.978 31.2935 15.9693 31.3718C16.0712 31.1048 16.1733 30.8394 16.2755 30.5755C16.2691 29.0413 16.2691 27.5053 16.2632 25.9699C16.2573 24.4345 16.2567 22.898 16.2567 21.362ZM18.6127 22.7004C18.6127 23.1745 18.6098 23.6487 18.6127 24.1211C18.6156 24.5936 18.6192 25.0695 18.6192 25.5437C19.1359 25.5472 19.6532 25.5519 20.1763 25.5589C20.3617 25.3948 20.5466 25.2301 20.7312 25.0648C20.7247 24.4801 20.7247 23.8955 20.7247 23.3108C20.5272 23.1295 20.3356 22.9442 20.144 22.7582C19.6338 22.7401 19.1229 22.7202 18.6121 22.6998L18.6127 22.7004ZM24.619 21.186C24.7366 21.1895 24.8542 21.1948 24.9764 21.1977C25.7042 21.2205 26.4319 21.2439 27.1661 21.2691C28.1166 21.2971 29.0677 21.3152 30.0252 21.3217C30.5543 21.7514 31.0833 22.1794 31.6206 22.608V23.8902C31.6206 24.3164 31.6276 24.7462 31.6276 25.1718L30.6871 25.8536C31.0006 26.0761 31.3141 26.2979 31.6276 26.5189V27.2609C31.6276 27.9988 31.6341 28.7349 31.6341 29.4733C31.098 29.8879 30.5678 30.3042 30.0376 30.7205C29.08 30.7269 28.1301 30.7322 27.1784 30.7602C26.4444 30.7817 25.7167 30.8037 24.9953 30.8263C24.8736 30.8263 24.7525 30.8333 24.6379 30.8362C24.689 30.6088 24.7401 30.3819 24.7972 30.1545C24.7909 28.7715 24.7868 27.3878 24.7848 26.0032C24.7819 24.6199 24.7783 23.2354 24.7848 21.852C24.726 21.6298 24.6672 21.4076 24.619 21.1837V21.186ZM27.1661 23.0921C27.1661 24.0767 27.1719 25.0654 27.1719 26.0483C27.1719 27.0311 27.1719 28.0192 27.1784 29.0021C27.7145 28.9939 28.2506 28.9857 28.7867 28.9857C28.963 28.8314 29.1447 28.6788 29.3228 28.5262C29.3228 28.1046 29.3169 27.6854 29.3169 27.2638C29.1641 27.1013 29.0106 26.9405 28.8631 26.778C28.2953 27.0662 27.7333 27.3568 27.1719 27.655V25.6741C27.8867 25.3121 28.6021 24.959 29.3104 24.5977V23.5844C29.1341 23.4312 28.953 23.2774 28.7743 23.1248C28.2383 23.1149 27.7022 23.1032 27.1667 23.0939L27.1661 23.0921ZM32.4758 21.338C32.5652 21.555 32.6522 21.7742 32.7504 21.9911V26.0179C32.7504 27.3597 32.7574 28.7027 32.7633 30.0463C32.661 30.2685 32.5593 30.4907 32.4629 30.7129C34.729 30.7427 37.0015 30.793 39.2669 30.869C39.3886 30.1989 39.5103 29.5283 39.6378 28.8553L38.8525 29.0307C37.6146 29.0027 36.376 28.9723 35.1445 28.9547V26.7259C35.8335 26.7259 36.523 26.7359 37.2125 26.7388L38.1706 26.9843C38.1636 26.2365 38.1636 25.487 38.1636 24.7392L37.2818 24.973C36.5671 24.9795 35.8523 24.9783 35.1375 24.9812V23.029C35.9734 23.0225 36.8157 23.012 37.6586 22.9927C38.1289 23.0874 38.6039 23.1798 39.0823 23.2763C38.9295 22.5813 38.7765 21.8875 38.6233 21.1948C36.5735 21.2761 34.525 21.3076 32.4758 21.3392V21.338ZM40.5442 22.5887C40.5442 23.7329 40.5407 24.8783 40.5442 26.0214C40.5478 27.1644 40.5501 28.3133 40.5501 29.4576C41.0615 29.9779 41.5718 30.5059 42.0884 31.0397C43.2758 31.1091 44.4652 31.1915 45.6565 31.287L46.6975 32.2383C47.1952 31.8154 47.6931 31.3866 48.1912 30.952C47.9161 30.617 47.6422 30.2884 47.3741 29.958C47.3741 28.6665 47.3677 27.3743 47.3677 26.0804V22.2051C46.819 21.7105 46.2678 21.2185 45.7141 20.7294C44.5267 20.8317 43.3399 20.9095 42.1596 20.9843C41.6168 21.53 41.0784 22.0652 40.5442 22.5899V22.5887ZM42.9314 23.3254C43.0977 23.1611 43.2635 22.9986 43.4357 22.8307C43.7996 22.8191 44.1635 22.8044 44.5267 22.7881C44.6937 22.9418 44.8659 23.095 45.0381 23.247V25.9834C45.0381 26.8972 45.0381 27.8111 45.0446 28.7232C44.8336 28.884 44.6296 29.0436 44.4256 29.2009C44.1085 29.1842 43.7913 29.171 43.4739 29.1611C43.2894 28.9857 43.1101 28.8191 42.932 28.6484C42.9255 27.7631 42.9255 26.8744 42.9255 25.9869C42.9255 25.0993 42.9249 24.2118 42.9314 23.3254ZM48.4334 20.5259C48.5117 20.7746 48.5882 21.0239 48.6626 21.2737V29.9154C49.1928 30.5024 49.7228 31.1011 50.2527 31.7115C51.4524 31.8337 52.6592 31.9752 53.8654 32.1243C54.4011 31.5919 54.9372 31.045 55.4737 30.4837C55.4678 28.8302 55.4658 27.1779 55.4678 25.5267V20.568L55.6777 19.6577C54.7201 19.7775 53.7696 19.898 52.8185 20.0161C52.8949 20.2932 52.9719 20.5698 53.0536 20.8452C53.0601 22.2233 53.073 23.6031 53.0789 24.983C53.0848 26.3628 53.0983 27.7456 53.1106 29.126C52.9343 29.3418 52.758 29.557 52.5875 29.7692C52.2107 29.7394 51.8339 29.7107 51.4583 29.6832L50.9986 29.0033V21.0516C51.088 20.7727 51.175 20.4944 51.2731 20.2143L48.4328 20.5242L48.4334 20.5259ZM56.667 19.5144C56.7563 19.8033 56.8515 20.0915 56.9473 20.3833V31.5917C56.8456 31.8904 56.7434 32.1904 56.6476 32.4839C58.9134 32.8058 61.1836 33.1504 63.458 33.5176C63.5791 32.4839 63.7026 31.4451 63.8284 30.4012L63.0372 30.6269C61.7984 30.5006 60.562 30.3775 59.328 30.2574V27.0048C60.0181 27.0194 60.7076 27.0329 61.4024 27.0463L62.36 27.4346V23.9867C62.0661 24.12 61.7722 24.2474 61.4783 24.3749C60.757 24.4047 60.0416 24.4363 59.3262 24.4626V21.621C60.1692 21.5404 61.0121 21.4456 61.8539 21.3492C62.3241 21.4587 62.7963 21.5704 63.2705 21.6842C63.1177 20.6146 62.9647 19.5532 62.8114 18.5C60.7623 18.8613 58.7132 19.1997 56.664 19.515L56.667 19.5144ZM63.8289 15.2462C55.6521 16.6246 47.4024 17.5345 39.1205 17.9714V19.1677C47.4275 18.6576 55.6855 17.5406 63.8278 15.8256V15.2468L63.8289 15.2462ZM26.1856 18.0527V19.2268C29.9483 18.3054 33.8795 18.3054 37.6422 19.2268V18.0574C33.889 17.0613 29.9388 17.0613 26.1856 18.0574V18.0527ZM0 15.2462V15.8251C8.14224 17.54 16.4002 18.6571 24.7072 19.1671V17.9709C16.4259 17.5346 8.17652 16.6255 0 15.248L0 15.2462ZM40.9622 33.9561L40.8346 33.503H42.3541L44.0923 37.6209L44.0882 33.9672L43.8819 33.4995H45.6689L45.4884 33.9672V39.5346L45.616 39.9883H44.0953L42.3571 35.9668L42.3612 39.5252L42.5675 39.993H40.7805L40.961 39.5252V33.9573L40.9622 33.9561ZM36.2008 34.4923L36.195 39.0131L37.1061 40H39.2117L40.2262 39.0131V34.4736L39.2516 33.5042H37.1549L36.2003 34.4934L36.2008 34.4923ZM37.6081 35.0308L37.9085 34.7291H38.5498L38.8537 35.0308V38.4342L38.4863 38.7505H37.9249L37.6051 38.436L37.6081 35.0308ZM35.3644 33.9672L35.5407 33.503H33.7831L33.9566 33.9672V39.5217L33.7831 39.9866H35.539L35.3626 39.5217V33.9672H35.3644ZM29.9935 34.6905V39.5252L29.8201 39.9901H31.5759L31.3995 39.5252V34.6905H32.4764L33.3152 34.9132L33.0331 33.5018H28.3605L28.0778 34.9132L28.9166 34.6905H29.9929H29.9935ZM24.9147 33.5042H27.3248L27.1625 33.9719L28.2265 39.5264L28.4616 39.9906H26.6312L26.7487 39.5264L26.6165 38.633H25.5878L25.4567 39.5264L25.5878 39.9906H23.7367L23.9854 39.5264L25.0246 33.9719L24.9147 33.5042ZM26.1045 35.405L25.807 37.3929H26.4019L26.1045 35.405Z" fill="#1E1D1D"/>
</svg>
